<svg width="56" height="43" viewBox="0 0 56 43" fill="none" xmlns="http://www.w3.org/2000/svg">
<rect y="8" width="56" height="27" rx="13.5" fill="#C0C0C0" fill-opacity="0.2"/>
<path d="M11.8098 27V15.8H13.7458V23.976L19.4098 15.8H21.2498V27H19.3138V18.84L13.6658 27H11.8098ZM26.4016 27.192C24.9509 27.192 23.7189 26.76 22.7056 25.896L23.6176 24.616C24.4069 25.288 25.2922 25.624 26.2736 25.624C26.7216 25.624 27.1002 25.5173 27.4096 25.304C27.7189 25.08 27.8736 24.7973 27.8736 24.456C27.8736 24.136 27.7242 23.88 27.4256 23.688C27.1269 23.496 26.7056 23.4 26.1616 23.4H25.1216V22.008H26.1616C26.6096 22.008 26.9669 21.9067 27.2336 21.704C27.5109 21.4907 27.6496 21.224 27.6496 20.904C27.6496 20.616 27.5162 20.3867 27.2496 20.216C26.9936 20.0347 26.6629 19.944 26.2576 19.944C25.3189 19.944 24.5189 20.232 23.8576 20.808L22.9936 19.592C23.9216 18.7813 25.0682 18.376 26.4336 18.376C27.3616 18.376 28.1189 18.5893 28.7056 19.016C29.2922 19.4427 29.5856 19.9867 29.5856 20.648C29.5856 21.544 29.1429 22.184 28.2576 22.568C29.2816 22.9307 29.7936 23.6133 29.7936 24.616C29.7936 25.3413 29.4789 25.9547 28.8496 26.456C28.2202 26.9467 27.4042 27.192 26.4016 27.192ZM31.3948 27V18.552H33.3148L35.9548 22.472L38.6108 18.552H40.5308V27H38.5788V21.368L35.9228 25.16L33.2828 21.4V27H31.3948ZM42.4213 27V24.808H44.5493V27H42.4213Z" fill="#494949"/>
</svg>
