<svg width="24" height="24" viewBox="0 0 24 24" fill="none" xmlns="http://www.w3.org/2000/svg">
<path d="M22 8.70906C22 10.1291 21.45 11.4591 20.45 12.4591L12.6 20.3091C12.56 20.3491 12.45 20.4391 12.4 20.4691C12.28 20.5491 12.14 20.5891 12 20.5891C11.86 20.5891 11.71 20.5491 11.59 20.4691C11.53 20.4291 11.48 20.3891 11.42 20.3291L3.56 12.4591C2.55 11.4591 2 10.1291 2 8.70906C2 7.28906 2.55 5.95906 3.56 4.95906C5.63 2.89906 8.99 2.89906 11.06 4.95906L12 5.90906L12.95 4.95906C15.02 2.89906 18.38 2.89906 20.44 4.95906C21.45 5.95906 22 7.28906 22 8.70906Z" fill="#F34545"/>
</svg>
