<svg width="28" height="28" viewBox="0 0 28 28" fill="none" xmlns="http://www.w3.org/2000/svg">
<path fill-rule="evenodd" clip-rule="evenodd" d="M24.5 11.8427V20.962C24.5 23.5607 22.4107 25.6673 19.8333 25.6673H8.16667C5.58934 25.6673 3.5 23.5607 3.5 20.962V11.8427C3.5 10.4299 4.12959 9.0919 5.21484 8.19826L11.0482 3.39489C12.766 1.98035 15.234 1.98035 16.9518 3.39489L22.7852 8.19826C23.8704 9.0919 24.5 10.4299 24.5 11.8427ZM11.6667 20.1257C11.1834 20.1257 10.7917 20.5174 10.7917 21.0007C10.7917 21.4839 11.1834 21.8757 11.6667 21.8757H16.3333C16.8166 21.8757 17.2083 21.4839 17.2083 21.0007C17.2083 20.5174 16.8166 20.1257 16.3333 20.1257H11.6667Z" fill="#D6D5DB"/>
</svg>
