<svg width="28" height="28" viewBox="0 0 28 28" fill="none" xmlns="http://www.w3.org/2000/svg">
<path fill-rule="evenodd" clip-rule="evenodd" d="M2.3335 8.16667C2.3335 5.58934 4.42283 3.5 7.00016 3.5H21.0002C23.5775 3.5 25.6668 5.58934 25.6668 8.16667V9.91667H21.0002C18.745 9.91667 16.9168 11.7448 16.9168 14C16.9168 16.2552 18.745 18.0833 21.0002 18.0833H25.6668V19.8333C25.6668 22.4107 23.5775 24.5 21.0002 24.5H7.00016C4.42283 24.5 2.3335 22.4107 2.3335 19.8333V8.16667ZM21.0002 16.3333L25.6668 16.3333V11.6667H21.0002C19.7115 11.6667 18.6668 12.7113 18.6668 14C18.6668 15.2887 19.7115 16.3333 21.0002 16.3333Z" fill="#D6D5DB"/>
</svg>
