<svg width="77" height="43" viewBox="0 0 77 43" fill="none" xmlns="http://www.w3.org/2000/svg">
<rect y="8" width="77" height="27" rx="13.5" fill="#C0C0C0" fill-opacity="0.2"/>
<path d="M11.71 27V15.8H19.246V17.576H13.662V27H11.71ZM24.594 27.192C23.314 27.192 22.2473 26.7653 21.394 25.912C20.5407 25.0587 20.114 24.0187 20.114 22.792C20.114 21.5653 20.546 20.5253 21.41 19.672C22.274 18.808 23.346 18.376 24.626 18.376C25.906 18.376 26.9727 18.8027 27.826 19.656C28.69 20.5093 29.122 21.5547 29.122 22.792C29.122 24.008 28.69 25.048 27.826 25.912C26.962 26.7653 25.8847 27.192 24.594 27.192ZM24.626 25.512C25.394 25.512 26.0127 25.2507 26.482 24.728C26.9513 24.2053 27.186 23.56 27.186 22.792C27.186 22.0347 26.9407 21.3947 26.45 20.872C25.9593 20.3387 25.3407 20.072 24.594 20.072C23.8367 20.072 23.2233 20.3333 22.754 20.856C22.2847 21.3787 22.05 22.024 22.05 22.792C22.05 23.5387 22.2953 24.1787 22.786 24.712C23.2767 25.2453 23.89 25.512 24.626 25.512ZM32.4936 27V20.216H29.7736V18.552H37.1656V20.216H34.4456V27H32.4936ZM42.3093 27.192C41.0293 27.192 39.9626 26.7653 39.1093 25.912C38.2559 25.0587 37.8293 24.0187 37.8293 22.792C37.8293 21.5653 38.2613 20.5253 39.1253 19.672C39.9893 18.808 41.0613 18.376 42.3413 18.376C43.6213 18.376 44.6879 18.8027 45.5413 19.656C46.4053 20.5093 46.8373 21.5547 46.8373 22.792C46.8373 24.008 46.4053 25.048 45.5413 25.912C44.6773 26.7653 43.5999 27.192 42.3093 27.192ZM42.3413 25.512C43.1093 25.512 43.7279 25.2507 44.1973 24.728C44.6666 24.2053 44.9013 23.56 44.9013 22.792C44.9013 22.0347 44.6559 21.3947 44.1653 20.872C43.6746 20.3387 43.0559 20.072 42.3093 20.072C41.5519 20.072 40.9386 20.3333 40.4693 20.856C39.9999 21.3787 39.7653 22.024 39.7653 22.792C39.7653 23.5387 40.0106 24.1787 40.5013 24.712C40.9919 25.2453 41.6053 25.512 42.3413 25.512ZM48.4009 27V18.552H52.7369C53.5795 18.552 54.2515 18.744 54.7529 19.128C55.2649 19.5013 55.5209 20.0133 55.5209 20.664C55.5209 21.5493 55.0675 22.1947 54.1609 22.6C55.3235 22.9307 55.9049 23.6347 55.9049 24.712C55.9049 25.4267 55.6222 25.9867 55.0569 26.392C54.5022 26.7973 53.7449 27 52.7849 27H48.4009ZM50.3049 25.464H52.4969C52.9555 25.464 53.3075 25.368 53.5529 25.176C53.8089 24.9733 53.9369 24.7067 53.9369 24.376C53.9369 24.056 53.8035 23.8053 53.5369 23.624C53.2809 23.4427 52.9022 23.352 52.4009 23.352H50.3049V25.464ZM50.3049 22.04H52.2889C52.6835 22.04 52.9929 21.944 53.2169 21.752C53.4409 21.56 53.5529 21.3093 53.5529 21C53.5529 20.712 53.4515 20.4827 53.2489 20.312C53.0462 20.1307 52.7369 20.04 52.3209 20.04H50.3049V22.04ZM61.4464 27.192C60.1664 27.192 59.0997 26.7653 58.2464 25.912C57.393 25.0587 56.9664 24.0187 56.9664 22.792C56.9664 21.5653 57.3984 20.5253 58.2624 19.672C59.1264 18.808 60.1984 18.376 61.4784 18.376C62.7584 18.376 63.825 18.8027 64.6784 19.656C65.5424 20.5093 65.9744 21.5547 65.9744 22.792C65.9744 24.008 65.5424 25.048 64.6784 25.912C63.8144 26.7653 62.737 27.192 61.4464 27.192ZM61.4784 25.512C62.2464 25.512 62.865 25.2507 63.3344 24.728C63.8037 24.2053 64.0384 23.56 64.0384 22.792C64.0384 22.0347 63.793 21.3947 63.3024 20.872C62.8117 20.3387 62.193 20.072 61.4464 20.072C60.689 20.072 60.0757 20.3333 59.6064 20.856C59.137 21.3787 58.9024 22.024 58.9024 22.792C58.9024 23.5387 59.1477 24.1787 59.6384 24.712C60.129 25.2453 60.7424 25.512 61.4784 25.512Z" fill="#494949"/>
</svg>
