<svg width="30" height="30" viewBox="0 0 30 30" fill="none" xmlns="http://www.w3.org/2000/svg">
<rect width="30" height="30" rx="6" fill="#5458EA"/>
<path d="M25 11.7091C25 13.1291 24.45 14.4591 23.45 15.4591L15.6 23.3091C15.56 23.3491 15.45 23.4391 15.4 23.4691C15.28 23.5491 15.14 23.5891 15 23.5891C14.86 23.5891 14.71 23.5491 14.59 23.4691C14.53 23.4291 14.48 23.3891 14.42 23.3291L6.56 15.4591C5.55 14.4591 5 13.1291 5 11.7091C5 10.2891 5.55 8.95906 6.56 7.95906C8.63 5.89906 11.99 5.89906 14.06 7.95906L15 8.90906L15.95 7.95906C18.02 5.89906 21.38 5.89906 23.44 7.95906C24.45 8.95906 25 10.2891 25 11.7091Z" fill="white"/>
</svg>
