<svg width="81" height="43" viewBox="0 0 81 43" fill="none" xmlns="http://www.w3.org/2000/svg">
<rect y="8" width="81" height="27" rx="13.5" fill="#C0C0C0" fill-opacity="0.2"/>
<path d="M21.387 25.496C20.2777 26.6267 18.875 27.192 17.179 27.192C15.483 27.192 14.0857 26.632 12.987 25.512C11.8883 24.392 11.339 23.0213 11.339 21.4C11.339 19.8 11.8937 18.4347 13.003 17.304C14.1123 16.1733 15.515 15.608 17.211 15.608C18.907 15.608 20.3043 16.168 21.403 17.288C22.5017 18.408 23.051 19.7787 23.051 21.4C23.051 23 22.4963 24.3653 21.387 25.496ZM14.475 24.232C15.2003 25 16.1123 25.384 17.211 25.384C18.3097 25.384 19.211 25 19.915 24.232C20.6297 23.464 20.987 22.52 20.987 21.4C20.987 20.2907 20.6243 19.352 19.899 18.584C19.1843 17.8053 18.2777 17.416 17.179 17.416C16.0803 17.416 15.1737 17.8 14.459 18.568C13.755 19.336 13.403 20.28 13.403 21.4C13.403 22.5093 13.7603 23.4533 14.475 24.232ZM26.6048 27V20.216H23.8848V18.552H31.2768V20.216H28.5568V27H26.6048ZM32.4044 27V18.552H34.3244L36.9644 22.472L39.6204 18.552H41.5404V27H39.5884V21.368L36.9324 25.16L34.2924 21.4V27H32.4044ZM47.4309 27.192C46.1935 27.192 45.1589 26.7813 44.3269 25.96C43.5055 25.1387 43.0949 24.0773 43.0949 22.776C43.0949 21.5493 43.4842 20.5093 44.2629 19.656C45.0415 18.8027 46.0282 18.376 47.2229 18.376C48.5029 18.376 49.4949 18.8133 50.1989 19.688C50.9135 20.552 51.2709 21.6293 51.2709 22.92C51.2709 23.1547 51.2602 23.336 51.2389 23.464H45.0309C45.1375 24.136 45.4095 24.664 45.8469 25.048C46.2842 25.4213 46.8229 25.608 47.4629 25.608C48.2949 25.608 49.0575 25.272 49.7509 24.6L50.8869 25.608C50.0122 26.664 48.8602 27.192 47.4309 27.192ZM45.0149 22.184H49.3509C49.2869 21.5333 49.0682 21 48.6949 20.584C48.3215 20.168 47.8255 19.96 47.2069 19.96C46.6202 19.96 46.1295 20.168 45.7349 20.584C45.3402 20.9893 45.1002 21.5227 45.0149 22.184ZM52.8071 27V18.552H54.7431V21.976H58.4711V18.552H60.4071V27H58.4711V23.592H54.7431V27H52.8071ZM69.5184 27H67.5984V25.96C66.9157 26.7707 66.0037 27.176 64.8624 27.176C64.0197 27.176 63.305 26.9467 62.7184 26.488C62.1424 26.0187 61.8544 25.368 61.8544 24.536C61.8544 23.6293 62.169 22.9413 62.7984 22.472C63.4277 22.0027 64.2544 21.768 65.2784 21.768C66.0997 21.768 66.8784 21.8853 67.6144 22.12V21.96C67.6144 21.3733 67.433 20.9253 67.0704 20.616C66.7184 20.3067 66.2064 20.152 65.5344 20.152C64.7664 20.152 63.961 20.328 63.1184 20.68L62.5904 19.128C63.6357 18.6587 64.7077 18.424 65.8064 18.424C67.033 18.424 67.9557 18.7333 68.5744 19.352C69.2037 19.9707 69.5184 20.8507 69.5184 21.992V27ZM67.6464 23.944V23.464C67.0704 23.24 66.425 23.128 65.7104 23.128C65.1024 23.128 64.6277 23.2453 64.2864 23.48C63.945 23.7147 63.7744 24.0453 63.7744 24.472C63.7744 24.856 63.929 25.16 64.2384 25.384C64.5477 25.608 64.937 25.72 65.4064 25.72C66.057 25.72 66.5904 25.5547 67.0064 25.224C67.433 24.8933 67.6464 24.4667 67.6464 23.944Z" fill="#494949"/>
</svg>
