<svg width="44" height="44" viewBox="0 0 44 44" fill="none" xmlns="http://www.w3.org/2000/svg">
<rect y="8" width="44" height="28" rx="14" fill="#C0C0C0" fill-opacity="0.2"/>
<path fill-rule="evenodd" clip-rule="evenodd" d="M30.5303 29.4697C30.8232 29.7626 30.8232 30.2374 30.5303 30.5303C30.2374 30.8232 29.7625 30.8232 29.4696 30.5303L13.4696 14.5303C13.1767 14.2374 13.1767 13.7626 13.4696 13.4697C13.7625 13.1768 14.2374 13.1768 14.5303 13.4697L17.357 16.2964C18.7663 15.5291 20.3399 15 21.9999 15C25.8155 15 29.1744 17.7953 31.1302 19.8531C32.2898 21.0732 32.2898 22.9268 31.1302 24.1469C30.3004 25.02 29.218 26.0259 27.9553 26.8947L30.5303 29.4697ZM24.5846 23.524C24.8485 23.0773 24.9999 22.5564 24.9999 22C24.9999 20.3431 23.6568 19 21.9999 19C21.4436 19 20.9226 19.1514 20.476 19.4154L24.5846 23.524ZM21.9999 29C18.1844 29 14.8254 26.2047 12.8696 24.1469C11.71 22.9268 11.71 21.0732 12.8696 19.8531C13.3097 19.3901 13.8208 18.8897 14.3922 18.3923L24.5872 28.5874C23.7578 28.8474 22.8913 29 21.9999 29Z" fill="#494949"/>
</svg>
