<svg width="28" height="28" viewBox="0 0 28 28" fill="none" xmlns="http://www.w3.org/2000/svg">
<path fill-rule="evenodd" clip-rule="evenodd" d="M12.8335 3.5H15.1668C20.9658 3.5 25.6668 8.20101 25.6668 14C25.6668 19.799 20.9658 24.5 15.1668 24.5H7.00016C4.42283 24.5 2.3335 22.4107 2.3335 19.8333V14C2.3335 8.20101 7.03451 3.5 12.8335 3.5ZM9.3335 17.2083C8.85025 17.2083 8.4585 16.8166 8.4585 16.3333C8.4585 15.8501 8.85025 15.4583 9.3335 15.4583H14.0002C14.4834 15.4583 14.8752 15.8501 14.8752 16.3333C14.8752 16.8166 14.4834 17.2083 14.0002 17.2083H9.3335ZM9.3335 12.5417C8.85025 12.5417 8.4585 12.1499 8.4585 11.6667C8.4585 11.1834 8.85025 10.7917 9.3335 10.7917H18.6668C19.1501 10.7917 19.5418 11.1834 19.5418 11.6667C19.5418 12.1499 19.1501 12.5417 18.6668 12.5417H9.3335Z" fill="#D6D5DB"/>
</svg>
